HIERARCHY
ROOT Root
{
  OFFSET 0.0 0.0 0.0
  CHANNELS 6 Xposition Yposition Zposition Zrotation Yrotation Xrotation
  JOINT Hips
  {
    OFFSET 0.0 100.0 0.0
    CHANNELS 6 Xposition Yposition Zposition Zrotation Yrotation Xrotation
    JOINT Spine1
    {
      OFFSET -0.013727 5.003763 -0.053727
      CHANNELS 3 Zrotation Yrotation Xrotation
      JOINT Spine2
      {
        OFFSET -0.0 7.125301 -0.029825
        CHANNELS 3 Zrotation Yrotation Xrotation
        JOINT Chest
        {
          OFFSET -1e-06 7.550063 -0.815971
          CHANNELS 3 Zrotation Yrotation Xrotation
          JOINT Neck1
          {
            OFFSET -0.181677 26.311295 -0.553348
            CHANNELS 3 Zrotation Yrotation Xrotation
            JOINT Neck2
            {
              OFFSET -3e-06 7.709397 2.302585
              CHANNELS 3 Zrotation Yrotation Xrotation
              JOINT Head
              {
                OFFSET -5e-06 6.128916 1.953709
                CHANNELS 3 Zrotation Yrotation Xrotation
                JOINT HeadEnd
                {
                  OFFSET 0.003598 16.065403 -1.835379
                  CHANNELS 3 Zrotation Yrotation Xrotation
                }
                JOINT Jaw
                {
                  OFFSET 0.002637 0.475592 3.094941
                  CHANNELS 3 Zrotation Yrotation Xrotation
                }
                JOINT LeftEye
                {
                  OFFSET 3.206381 5.380205 7.586883
                  CHANNELS 3 Zrotation Yrotation Xrotation
                }
                JOINT RightEye
                {
                  OFFSET -3.22244 5.361869 7.558234
                  CHANNELS 3 Zrotation Yrotation Xrotation
                }
              }
            }
          }
          JOINT LeftShoulder
          {
            OFFSET 1.621652 23.237164 5.113413
            CHANNELS 3 Zrotation Yrotation Xrotation
            JOINT LeftArm
            {
              OFFSET 14.919846 2e-06 -5.502326
              CHANNELS 3 Zrotation Yrotation Xrotation
              JOINT LeftForeArm
              {
                OFFSET 28.739307 0.0 -0.002588
                CHANNELS 3 Zrotation Yrotation Xrotation
                JOINT LeftHand
                {
                  OFFSET 27.093981 -1e-06 0.002609
                  CHANNELS 3 Zrotation Yrotation Xrotation
                  JOINT LeftHandThumb1
                  {
                    OFFSET 2.276482 -1.392045 3.191413
                    CHANNELS 3 Zrotation Yrotation Xrotation
                    JOINT LeftHandThumb2
                    {
                      OFFSET 4.012836 -1.828127 1.641654
                      CHANNELS 3 Zrotation Yrotation Xrotation
                      JOINT LeftHandThumb3
                      {
                        OFFSET 2.798515 0.0 -3e-06
                        CHANNELS 3 Zrotation Yrotation Xrotation
                        JOINT LeftHandThumbEnd
                        {
                          OFFSET 3.180793 -4e-06 4e-06
                          CHANNELS 3 Zrotation Yrotation Xrotation
                        }
                      }
                    }
                  }
                  JOINT LeftHandIndex1
                  {
                    OFFSET 3.247555 -0.531998 2.296169
                    CHANNELS 3 Zrotation Yrotation Xrotation
                    JOINT LeftHandIndex2
                    {
                      OFFSET 6.364578 0.01206 0.1786
                      CHANNELS 3 Zrotation Yrotation Xrotation
                      JOINT LeftHandIndex3
                      {
                        OFFSET 3.662364 0.0 0.0
                        CHANNELS 3 Zrotation Yrotation Xrotation
                        JOINT LeftHandIndex4
                        {
                          OFFSET 2.329242 4e-06 4e-06
                          CHANNELS 3 Zrotation Yrotation Xrotation
                          JOINT LeftHandIndexEnd
                          {
                            OFFSET 2.759615 -0.180537 -0.113024
                            CHANNELS 3 Zrotation Yrotation Xrotation
                          }
                        }
                      }
                    }
                  }
                  JOINT LeftHandMiddle1
                  {
                    OFFSET 3.163495 0.240981 1.000332
                    CHANNELS 3 Zrotation Yrotation Xrotation
                    JOINT LeftHandMiddle2
                    {
                      OFFSET 6.19078 -0.259278 -1.002548
                      CHANNELS 3 Zrotation Yrotation Xrotation
                      JOINT LeftHandMiddle3
                      {
                        OFFSET 4.35652 -4e-06 -1e-06
                        CHANNELS 3 Zrotation Yrotation Xrotation
                        JOINT LeftHandMiddle4
                        {
                          OFFSET 2.996877 -8e-06 0.0
                          CHANNELS 3 Zrotation Yrotation Xrotation
                          JOINT LeftHandMiddleEnd
                          {
                            OFFSET 2.304287 -0.294569 -0.031741
                            CHANNELS 3 Zrotation Yrotation Xrotation
                          }
                        }
                      }
                    }
                  }
                  JOINT LeftHandRing1
                  {
                    OFFSET 2.882643 -0.053652 -0.322543
                    CHANNELS 3 Zrotation Yrotation Xrotation
                    JOINT LeftHandRing2
                    {
                      OFFSET 5.854541 -0.486202 -1.373841
                      CHANNELS 3 Zrotation Yrotation Xrotation
                      JOINT LeftHandRing3
                      {
                        OFFSET 4.350578 0.0 3e-06
                        CHANNELS 3 Zrotation Yrotation Xrotation
                        JOINT LeftHandRing4
                        {
                          OFFSET 2.651321 7e-06 2e-06
                          CHANNELS 3 Zrotation Yrotation Xrotation
                          JOINT LeftHandRingEnd
                          {
                            OFFSET 1.936105 0.077687 -7.1e-05
                            CHANNELS 3 Zrotation Yrotation Xrotation
                          }
                        }
                      }
                    }
                  }
                  JOINT LeftHandPinky1
                  {
                    OFFSET 2.8655 -0.310005 -1.600378
                    CHANNELS 3 Zrotation Yrotation Xrotation
                    JOINT LeftHandPinky2
                    {
                      OFFSET 5.087849 -1.331141 -1.77123
                      CHANNELS 3 Zrotation Yrotation Xrotation
                      JOINT LeftHandPinky3
                      {
                        OFFSET 3.070974 4e-06 0.0
                        CHANNELS 3 Zrotation Yrotation Xrotation
                        JOINT LeftHandPinky4
                        {
                          OFFSET 1.549672 0.0 1e-06
                          CHANNELS 3 Zrotation Yrotation Xrotation
                          JOINT LeftHandPinkyEnd
                          {
                            OFFSET 1.944893 -0.157802 0.057219
                            CHANNELS 3 Zrotation Yrotation Xrotation
                          }
                        }
                      }
                    }
                  }
                }
              }
            }
          }
          JOINT RightShoulder
          {
            OFFSET -1.380118 23.180309 5.214158
            CHANNELS 3 Zrotation Yrotation Xrotation
            JOINT RightArm
            {
              OFFSET -15.037196 1.2e-05 -5.545604
              CHANNELS 3 Zrotation Yrotation Xrotation
              JOINT RightForeArm
              {
                OFFSET -28.736639 2e-06 -0.002597
                CHANNELS 3 Zrotation Yrotation Xrotation
                JOINT RightHand
                {
                  OFFSET -27.133619 -0.0 0.002613
                  CHANNELS 3 Zrotation Yrotation Xrotation
                  JOINT RightHandThumb1
                  {
                    OFFSET -2.274032 -1.383988 3.163127
                    CHANNELS 3 Zrotation Yrotation Xrotation
                    JOINT RightHandThumb2
                    {
                      OFFSET -4.011429 -1.827466 1.640914
                      CHANNELS 3 Zrotation Yrotation Xrotation
                      JOINT RightHandThumb3
                      {
                        OFFSET -2.794935 -4e-06 -3e-06
                        CHANNELS 3 Zrotation Yrotation Xrotation
                        JOINT RightHandThumbEnd
                        {
                          OFFSET -3.183852 4e-06 1e-06
                          CHANNELS 3 Zrotation Yrotation Xrotation
                        }
                      }
                    }
                  }
                  JOINT RightHandIndex1
                  {
                    OFFSET -3.253266 -0.520057 2.282866
                    CHANNELS 3 Zrotation Yrotation Xrotation
                    JOINT RightHandIndex2
                    {
                      OFFSET -6.341917 0.012471 0.178266
                      CHANNELS 3 Zrotation Yrotation Xrotation
                      JOINT RightHandIndex3
                      {
                        OFFSET -3.654871 -8e-06 -0.0
                        CHANNELS 3 Zrotation Yrotation Xrotation
                        JOINT RightHandIndex4
                        {
                          OFFSET -2.327586 0.0 1e-06
                          CHANNELS 3 Zrotation Yrotation Xrotation
                          JOINT RightHandIndexEnd
                          {
                            OFFSET -2.76179 -0.180656 -0.113078
                            CHANNELS 3 Zrotation Yrotation Xrotation
                          }
                        }
                      }
                    }
                  }
                  JOINT RightHandMiddle1
                  {
                    OFFSET -3.168106 0.246593 1.00103
                    CHANNELS 3 Zrotation Yrotation Xrotation
                    JOINT RightHandMiddle2
                    {
                      OFFSET -6.180828 -0.258836 -1.000895
                      CHANNELS 3 Zrotation Yrotation Xrotation
                      JOINT RightHandMiddle3
                      {
                        OFFSET -4.348901 0.0 -0.0
                        CHANNELS 3 Zrotation Yrotation Xrotation
                        JOINT RightHandMiddle4
                        {
                          OFFSET -3.00024 -4e-06 -2e-06
                          CHANNELS 3 Zrotation Yrotation Xrotation
                          JOINT RightHandMiddleEnd
                          {
                            OFFSET -2.30252 -0.29437 -0.031706
                            CHANNELS 3 Zrotation Yrotation Xrotation
                          }
                        }
                      }
                    }
                  }
                  JOINT RightHandRing1
                  {
                    OFFSET -2.88569 -0.067952 -0.308858
                    CHANNELS 3 Zrotation Yrotation Xrotation
                    JOINT RightHandRing2
                    {
                      OFFSET -5.854198 -0.48613 -1.373731
                      CHANNELS 3 Zrotation Yrotation Xrotation
                      JOINT RightHandRing3
                      {
                        OFFSET -4.33881 -4e-06 -0.0
                        CHANNELS 3 Zrotation Yrotation Xrotation
                        JOINT RightHandRing4
                        {
                          OFFSET -2.654903 -4e-06 4e-06
                          CHANNELS 3 Zrotation Yrotation Xrotation
                          JOINT RightHandRingEnd
                          {
                            OFFSET -1.933568 0.077527 -5.2e-05
                            CHANNELS 3 Zrotation Yrotation Xrotation
                          }
                        }
                      }
                    }
                  }
                  JOINT RightHandPinky1
                  {
                    OFFSET -2.866425 -0.342796 -1.584145
                    CHANNELS 3 Zrotation Yrotation Xrotation
                    JOINT RightHandPinky2
                    {
                      OFFSET -5.091371 -1.332055 -1.772385
                      CHANNELS 3 Zrotation Yrotation Xrotation
                      JOINT RightHandPinky3
                      {
                        OFFSET -3.062664 -4e-06 1e-06
                        CHANNELS 3 Zrotation Yrotation Xrotation
                        JOINT RightHandPinky4
                        {
                          OFFSET -1.546529 4e-06 -2e-06
                          CHANNELS 3 Zrotation Yrotation Xrotation
                          JOINT RightHandPinkyEnd
                          {
                            OFFSET -1.945119 -0.157718 0.057211
                            CHANNELS 3 Zrotation Yrotation Xrotation
                          }
                        }
                      }
                    }
                  }
                }
              }
            }
          }
        }
      }
    }
    JOINT LeftLeg
    {
      OFFSET 10.043214 -8.434526 2.595655
      CHANNELS 3 Zrotation Yrotation Xrotation
      JOINT LeftShin
      {
        OFFSET -1e-06 -43.221752 -0.802913
        CHANNELS 3 Zrotation Yrotation Xrotation
        JOINT LeftFoot
        {
          OFFSET 1e-06 -42.155094 -3.481523
          CHANNELS 3 Zrotation Yrotation Xrotation
          JOINT LeftToeBase
          {
            OFFSET 0.0 -5.059472 13.231529
            CHANNELS 3 Zrotation Yrotation Xrotation
            JOINT LeftToeEnd
            {
              OFFSET -0.009607 -1.647619 6.513017
              CHANNELS 3 Zrotation Yrotation Xrotation
            }
          }
        }
      }
    }
    JOINT RightLeg
    {
      OFFSET -10.047278 -8.29526 2.620317
      CHANNELS 3 Zrotation Yrotation Xrotation
      JOINT RightShin
      {
        OFFSET 1e-06 -43.362206 -0.805556
        CHANNELS 3 Zrotation Yrotation Xrotation
        JOINT RightFoot
        {
          OFFSET 2e-06 -42.117393 -3.478398
          CHANNELS 3 Zrotation Yrotation Xrotation
          JOINT RightToeBase
          {
            OFFSET -0.0 -5.079609 13.284196
            CHANNELS 3 Zrotation Yrotation Xrotation
            JOINT RightToeEnd
            {
              OFFSET 0.009532 -1.634378 6.460591
              CHANNELS 3 Zrotation Yrotation Xrotation
            }
          }
        }
      }
    }
  }
}
MOTION
Frames: 4
Frame Time: 0.03333333333333333
0.0 0.0 0.0 0.0 -0.0 0.0 -1.034976 95.221619 336.592407 0.000778 5.542493 -1.048593 1.315104 -0.879821 1.574662 -0.156812 -2.314016 -4.805671 -2.279157 -4.982585 11.672817 3.970386 2.380403 1.026149 0.877016 4.069529 -3.475944 3.029042 4.380271 -22.403589 7.7e-05 -2.2e-05 7e-06 0.129324 0.142454 0.05504 0.821888 -3.709799 -10.703443 -0.572022 4.004705 -10.664082 -3.877759 -11.052387 17.984432 -66.799416 -14.548546 23.349569 -0.460329 -8.285932 0.019872 6.220286 -1.033608 -21.700333 -5.882101 9.861278 0.702591 -10.936859 -0.360573 7.156199 -1e-06 8.774819 -0.0 -16.845268 17.700953 5.869587 -1.844031 2.498503 -2.507275 -10.16359 4.678942 4.621107 -20.976004 -1e-06 2e-06 -21.226267 2.451696 -3.593999 -0.0 -7e-06 0.0 -1.362682 2.240796 -0.746323 -21.33489 0.584911 3.008322 -13.821199 -1e-06 3e-06 -23.887144 -0.249076 -0.839482 -60.732853 2.193502 -0.647654 -0.294024 1.679685 0.833256 -14.218192 0.093216 1.300581 -34.212009 -0.28756 0.967168 -20.033194 0.964539 1.212842 -2e-06 1e-06 -0.0 -3.440384 0.788233 0.501654 -15.928168 -3.167305 2.999705 -6.338818 -0.0 3e-06 -18.123423 3.648182 -4.905665 -5e-06 0.0 -3e-06 -5.197873 9.219816 16.560898 82.243118 -10.283061 -22.193512 -58.086792 88.586533 -58.542931 -7.335276 -6.725689 -28.50873 2.243537 -5.25503 -3.180155 14.282871 -0.826592 6.952496 -4e-06 -12.690592 1e-06 16.413864 -17.69342 2.418917 1.665663 -1.95592 -2.878296 4.727793 -4.170581 4.993919 11.020511 3e-06 -1e-06 12.109035 -3.735711 -2.866779 0.0 1e-06 1e-06 1.291985 -1.928547 -1.498087 14.800108 0.567467 3.865604 14.242551 -1.341734 -6.660648 19.631937 0.143927 -0.648242 50.94545 -0.640868 -6.078003 0.353029 -1.511149 -0.031939 20.222765 3.684309 2.31663 18.787249 7e-06 2e-06 10.751615 -0.479868 1.397906 -1e-06 1e-06 1e-06 3.273803 0.305947 -0.58011 21.486786 11.830363 2.266131 8.162915 3e-06 1e-06 18.399057 -3.79898 -4.940567 3e-06 1e-06 -1e-06 5.483675 3.01736 17.531273 0.094911 -0.778694 33.747803 -9.618519 -8.601844 21.537836 2.082864 -1.681011 -14.246926 0.0 -0.0 3e-06 5.920693 -5.037616 -27.452555 -0.052126 0.098436 21.303268 -4.860731 -15.339879 2.519854 -1.424564 0.948507 -2.642483 0.0 0.0 -1e-06 
0.0 0.0 0.0 0.0 -0.0 0.0 -1.598686 95.426231 344.140167 -2.306637 4.474243 -3.025385 2.180238 -0.63999 2.6437 0.064994 -2.419882 -4.472154 -1.193476 -5.086899 12.125083 4.787338 2.106761 2.297431 1.001963 4.660386 -3.273625 2.682494 5.858311 -23.900469 7.6e-05 -2.2e-05 4e-06 0.102257 0.083692 0.135636 0.780611 -3.762484 -10.584794 -0.585093 3.941374 -10.540579 -2.305021 -11.69 18.646002 -68.470863 -17.756367 22.787148 -0.595067 -4.548037 0.013812 4.918869 1.118094 -22.160269 -5.882098 9.861275 0.70259 -10.936857 -0.360577 7.1562 2e-06 8.774817 -1e-06 -16.528603 17.657581 6.108776 -1.844031 2.498501 -2.507277 -10.163588 4.678936 4.621106 -20.976 -7e-06 4e-06 -21.226257 2.45169 -3.593993 -1e-06 -7e-06 -0.0 -1.362679 2.240796 -0.746324 -21.334888 0.584905 3.008323 -13.821198 -5e-06 4e-06 -23.887142 -0.249081 -0.839478 -60.517635 2.386898 -0.620842 -0.294024 1.679685 0.833255 -14.218191 0.093213 1.300579 -34.212006 -0.287567 0.967174 -20.033192 0.964534 1.212844 -1e-06 0.0 1e-06 -3.440385 0.788231 0.501655 -15.928168 -3.167309 2.999706 -6.338818 -2e-06 2e-06 -18.123421 3.648177 -4.905662 -3e-06 0.0 -2e-06 -6.001124 9.95888 16.078674 79.416237 -7.464942 -23.816586 -167.643631 86.169113 -168.171738 -11.165566 -6.350769 -28.939833 2.243541 -5.255036 -3.180159 14.282884 -0.826594 6.952503 -2e-06 -12.690597 -2e-06 16.250687 -17.965685 2.427541 1.665666 -1.95592 -2.878299 4.727798 -4.170583 4.993923 11.02052 2e-06 -1e-06 12.109046 -3.735713 -2.866784 0.0 -0.0 0.0 1.291986 -1.92855 -1.498089 14.800123 0.567469 3.865608 14.242567 -1.341734 -6.660657 19.631958 0.143925 -0.648243 51.01804 -0.732135 -6.200678 0.353028 -1.51115 -0.031941 20.222784 3.684306 2.316632 18.787266 4e-06 1e-06 10.751623 -0.47987 1.397907 -1e-06 0.0 0.0 3.273807 0.305946 -0.58011 21.486805 11.830367 2.266137 8.162924 1e-06 1e-06 18.399075 -3.798982 -4.940571 2e-06 0.0 -1e-06 8.0676 2.636804 11.004011 0.124311 -0.834223 48.782436 -8.65739 -5.688879 18.996981 2.0164 -1.877516 -5.736293 0.0 -0.0 2e-06 8.620595 -5.760549 -22.126711 -0.058404 -0.18334 23.908438 -4.666533 -12.857872 -0.661907 -1.432145 0.977084 -0.896718 0.0 0.0 -1e-06 
0.0 0.0 0.0 0.0 -0.0 0.0 -2.164023 96.045929 351.354919 -4.131972 4.067645 -4.585547 2.871519 -0.350884 3.283524 0.169283 -2.335239 -4.32917 -0.445512 -4.986334 12.734074 5.541687 1.781804 3.98293 0.95705 4.917739 -3.395354 2.584784 6.378865 -24.067406 7.7e-05 -2.3e-05 6e-06 0.107705 0.144759 0.15588 0.765076 -3.694111 -10.52958 -0.560364 3.994062 -10.49837 -2.128806 -12.202101 19.182629 -67.88604 -21.233313 23.500702 -0.235564 -4.020036 -0.007189 6.005433 2.230396 -23.973293 -5.8821 9.861277 0.70259 -10.936863 -0.360575 7.156199 1e-06 8.774817 -2e-06 -16.227989 17.772715 6.415635 -1.844032 2.498502 -2.507276 -10.163592 4.67894 4.621107 -20.976006 -4e-06 3e-06 -21.226269 2.451694 -3.593995 1e-06 -7e-06 1e-06 -1.362681 2.240796 -0.746323 -21.334892 0.584909 3.008322 -13.821199 -2e-06 3e-06 -23.887142 -0.249076 -0.839481 -60.602795 2.481757 -0.645578 -0.294025 1.679686 0.833256 -14.218197 0.093214 1.300579 -34.212021 -0.287564 0.967172 -20.033195 0.964535 1.212842 -0.0 1e-06 -1e-06 -3.440385 0.788232 0.501654 -15.928172 -3.167306 2.999706 -6.33882 -1e-06 3e-06 -18.123426 3.64818 -4.905665 -4e-06 1e-06 -2e-06 -3.882995 9.787924 15.656846 74.580841 -3.863435 -25.12274 -174.936035 84.161652 -175.395676 -17.527214 -4.54585 -28.520599 2.243542 -5.255034 -3.180156 14.282882 -0.826592 6.952498 -4e-06 -12.690598 0.0 15.817948 -17.878288 2.553133 1.665668 -1.955921 -2.878297 4.727794 -4.170584 4.99392 11.020518 3e-06 -1e-06 12.109042 -3.735713 -2.866783 0.0 -1e-06 -0.0 1.291984 -1.928548 -1.498088 14.800115 0.567469 3.865605 14.24256 -1.341735 -6.660653 19.631952 0.143926 -0.648243 50.785362 -0.748014 -6.368624 0.35303 -1.511149 -0.03194 20.222775 3.684309 2.316629 18.787256 5e-06 0.0 10.751619 -0.479868 1.397906 0.0 -0.0 0.0 3.273805 0.305947 -0.580111 21.486792 11.830369 2.266131 8.162921 2e-06 0.0 18.399065 -3.798983 -4.940571 3e-06 0.0 -1e-06 9.70266 2.268961 3.633543 0.042753 -0.747338 59.482262 -4.085709 -0.28813 10.448477 1.967386 -1.929846 -5.350328 0.0 -0.0 3e-06 10.711692 -6.742101 -15.055328 -0.123446 -0.256689 22.675991 -4.403996 -12.243639 -4.760485 -1.452067 0.97555 -0.27494 0.0 0.0 -1e-06 
0.0 0.0 0.0 0.0 -0.0 0.0 -2.639008 96.68013 358.657471 -5.040605 3.710635 -6.060046 3.179114 -0.204292 3.714381 0.201247 -1.781118 -4.138787 0.042245 -4.430884 13.375709 5.678807 1.463436 5.612467 1.000175 5.091058 -3.482879 2.567382 6.279927 -23.163925 7.7e-05 -2.3e-05 7e-06 0.110813 0.198966 0.156263 0.712761 -3.609608 -10.407386 -0.502624 4.019915 -10.402837 -2.248928 -12.498034 19.256027 -66.510727 -24.525543 23.503759 0.69988 -7.563643 -0.129607 9.100112 2.399189 -26.121382 -5.882102 9.861278 0.70259 -10.936863 -0.360576 7.156201 1e-06 8.774818 -1e-06 -16.049616 18.091806 6.601913 -1.844031 2.498503 -2.507277 -10.163594 4.67894 4.621106 -20.976011 -6e-06 2e-06 -21.226273 2.451693 -3.593997 0.0 -6e-06 1e-06 -1.362681 2.240797 -0.746322 -21.334902 0.584907 3.008321 -13.821205 -4e-06 1e-06 -23.887154 -0.249081 -0.839482 -60.422325 2.508086 -0.830389 -0.294024 1.679686 0.833255 -14.218201 0.093214 1.300579 -34.212032 -0.287566 0.967173 -20.033201 0.964536 1.212844 0.0 -0.0 0.0 -3.440385 0.788233 0.501656 -15.928176 -3.167309 2.999707 -6.338821 -2e-06 2e-06 -18.123436 3.648178 -4.905665 -2e-06 0.0 -2e-06 -0.616711 9.770432 15.40758 69.698868 -0.049302 -26.660774 -179.481903 83.858093 -179.712616 -25.91571 -1.253784 -26.561337 2.243537 -5.255033 -3.180155 14.282878 -0.826591 6.952497 -3e-06 -12.690593 -1e-06 15.539131 -17.693197 2.664711 1.665663 -1.95592 -2.878297 4.727794 -4.170583 4.993919 11.020515 4e-06 -1e-06 12.10904 -3.735712 -2.866782 0.0 0.0 -0.0 1.291984 -1.928548 -1.498088 14.800115 0.56747 3.865604 14.242559 -1.341734 -6.660653 19.63195 0.143928 -0.648243 50.255962 -0.807511 -6.396454 0.353029 -1.511149 -0.03194 20.222771 3.684309 2.316629 18.787256 7e-06 1e-06 10.751619 -0.479867 1.397906 0.0 -0.0 0.0 3.273803 0.305947 -0.58011 21.486795 11.830366 2.266132 8.162919 3e-06 1e-06 18.399063 -3.798981 -4.940569 3e-06 -0.0 -1e-06 9.704302 1.091146 -3.71459 0.017669 -0.439871 64.314743 -1.520557 4.153 3.735892 1.856866 -1.887064 -5.477475 -0.0 0.0 -0.0 11.705701 -6.833133 -6.24998 -0.096088 -0.306157 18.009838 -4.30801 -12.965112 -7.321683 -1.464312 1.00773 0.120802 -0.0 -0.0 -1e-06 
